<svg xmlns="http://www.w3.org/2000/svg" width="157" height="24.901" viewBox="0 0 157 24.901">
    <defs>
        <style>
            .cls-2{fill:#fff}
        </style>
    </defs>
    <g id="logo" transform="translate(0 -.099)">
        <g id="Logo_-_Black" transform="translate(0 .099)" fill="#fff">
            <g id="그룹_6">
                <path id="패스_8" fill="#ad002a" d="M154.021 192.339a12.45 12.45 0 1 0-12.446-12.452 12.451 12.451 0 0 0 12.446 12.452" transform="translate(-141.575 -167.438)"/>
                <path id="패스_9" d="M172.283 185.386V196.3h3.474v-.975h-2.478v-9.938z" class="cls-2" transform="translate(-160.332 -178.398)"/>
                <path id="패스_10" d="M161.006 188.356a1.492 1.492 0 1 0-1.491-1.493 1.493 1.493 0 0 0 1.491 1.493" class="cls-2" transform="translate(-152.533 -178.391)"/>
                <path id="패스_11" d="M157.7 172.645c-.13-.007-.377-.009-.5-.009a10.426 10.426 0 1 0 10.424 10.424v-.475h-7.442v.97h6.449v.143a9.448 9.448 0 1 1-9.431-10.088c.113 0 .382 0 .5.008z" class="cls-2" transform="translate(-144.757 -170.613)"/>
            </g>
            <g id="그룹_7" transform="translate(30.573 4.003)">
                <path id="패스_12" d="M223.861 178.336h-3.747v16.218h11.508V191.4h-7.761z" transform="translate(-220.114 -178.096)"/>
                <path id="패스_13" d="M258.638 187.995h3.051v2.836a8.6 8.6 0 0 1-2.7.429c-3.372 0-4.5-1.713-4.5-5.192 0-3.317 1.07-5.271 4.442-5.271a4.34 4.34 0 0 1 3.828 1.712l2.329-2.14c-1.419-2.034-3.908-2.65-6.237-2.65-5.245 0-8 2.863-8 8.323 0 5.433 2.489 8.376 7.975 8.376a11.931 11.931 0 0 0 6.317-1.579v-7.867h-6.5z" transform="translate(-238.888 -177.718)"/>
            </g>
            <g id="그룹_8" transform="translate(110.327 3.954)">
                <path id="패스_14" d="M434.223 191.74h-2.859v1.46H425v2.114h15.539V193.2h-6.313z" transform="translate(-424.997 -186.234)"/>
                <path id="패스_15" d="M434.7 181.368c1.048 1.479 3.3 2.12 5.808 2.262l.764-2.315c-3.286-.249-5.258-1.1-5.258-3.117v-.606h-2.931v.641c0 1.977-1.971 3.1-5.009 3.473l.675 2c2.308-.164 4.76-.877 5.951-2.338z" transform="translate(-426.876 -177.593)"/>
                <path id="패스_16" d="M433.228 207.521v-.421h8.206a4.221 4.221 0 0 0 .444-2.242v-2.128h-11.487v1.87h8.69v.739h-8.656v3.293c0 .757.429 1.159 1.334 1.159l10.555-.014v-1.968h-8.767c-.231-.001-.319-.073-.319-.288z" transform="translate(-428.292 -192.947)"/>
            </g>
            <g id="그룹_9" transform="translate(60.777 4.021)">
                <path id="패스_17" d="M333.355 194.337h2.416a19.693 19.693 0 0 0 .337-3.943v-12.63h-2.753z" transform="translate(-319.481 -177.764)"/>
                <path id="패스_18" d="M307.887 182.075h-1.092a4.214 4.214 0 0 0-4.523-3.83c-3.252 0-4.564 2.266-4.564 5.038 0 2.9 1.312 5.073 4.564 5.073a4.184 4.184 0 0 0 4.539-3.918h1.076v9.45h2.4a24.455 24.455 0 0 0 .267-3.588v-12.4h-2.665zm-5.6 3.889c-1.145 0-1.663-.887-1.663-2.664 0-1.685.518-2.591 1.663-2.591s1.627.906 1.627 2.591c.002 1.776-.478 2.663-1.624 2.663z" transform="translate(-297.707 -177.847)"/>
            </g>
            <g id="그룹_10" transform="translate(79.378 4.021)">
                <path id="패스_19" d="M350.581 187.393h-1.891c-.285 0-.373-.071-.373-.373v-8.57h-2.825v9.813c0 1.03.5 1.475 1.421 1.475h3.543a11.147 11.147 0 0 0 4.316-.817l-.373-2.061a11.724 11.724 0 0 1-3.818.533z" transform="translate(-345.492 -178.183)"/>
                <path id="패스_20" d="M365.764 181.423h-4.778v2.345h4.778v10.569h2.558a20.16 20.16 0 0 0 .338-3.588v-12.985h-2.9z" transform="translate(-354.956 -177.764)"/>
            </g>
            <g id="그룹_11" transform="translate(94.368 4.021)">
                <path id="패스_21" d="M414.169 194.337h2.576a22.194 22.194 0 0 0 .319-3.588v-12.985h-2.895z" transform="translate(-402.427 -177.764)"/>
                <path id="패스_22" d="M390.855 182.133V181h3.254v-2.327h-9.363V181h3.177v1.149c0 2.966-.85 4.845-3.923 6.195l1.172 2.091a8.15 8.15 0 0 0 4.4-3.526 8.532 8.532 0 0 0 3.876 3.257l1.351-2.355a5.594 5.594 0 0 1-3.944-5.678z" transform="translate(-384 -178.32)"/>
            </g>
            <g id="그룹_12" transform="translate(141.66 4.065)">
                <path id="패스_23" d="M531 189.923h2.639a19.269 19.269 0 0 0 .342-3.195v-8.851H531v1.41h-3.465v2.068H531v.977h-3.465v2.088H531z" transform="translate(-518.955 -177.877)"/>
                <path id="패스_24" d="M518.04 208.855c-.234 0-.306-.053-.306-.305v-3.226h-3v4.429a1.343 1.343 0 0 0 1.544 1.526h10.2v-2.424z" transform="translate(-511.136 -194.642)"/>
                <path id="패스_25" d="M510.855 185.579a6.745 6.745 0 0 0 3.986 3l1.23-2.477c-2.55-.557-3.959-1.994-3.959-4.579v-3h-2.962v3c0 2.621-.736 4-3.662 4.974l.988 2.082a6.607 6.607 0 0 0 4.379-3z" transform="translate(-505.487 -178.272)"/>
            </g>
            <g id="그룹_13" transform="translate(126.169 4.021)">
                <path id="패스_26" d="M472.13 186.57h10.4v-2.37h-8.648a.324.324 0 0 1-.213-.046c-.031-.031-.046-.071-.046-.207v-.776h8.087a2.907 2.907 0 0 0 .351-1.129 8.864 8.864 0 0 0 .093-1.292v-2.986h-11.3v2.282h8.531v1.021h-8.531v4.074a1.729 1.729 0 0 0 .315 1.123 1.332 1.332 0 0 0 .961.306z" transform="translate(-468.842 -177.764)"/>
                <path id="패스_27" d="M465.685 205.021h6.326v4.562h2.659a15.593 15.593 0 0 0 .24-1.646q.092-.943.093-1.813v-1.1h5.832v-2.3h-15.15z" transform="translate(-465.685 -193.01)"/>
            </g>
        </g>
    </g>
</svg>
