<svg xmlns="http://www.w3.org/2000/svg" xmlns:xlink="http://www.w3.org/1999/xlink" width="24" height="24" viewBox="0 0 24 24">
    <defs>
        <path id="y840pwk65a" d="M0 4h4V0H0v4zm6 12h4v-4H6v4zm-6 0h4v-4H0v4zm0-6h4V6H0v4zm6 0h4V6H6v4zm6-10v4h4V0h-4zM6 4h4V0H6v4zm6 6h4V6h-4v4zm0 6h4v-4h-4v4z"/>
    </defs>
    <g fill="none" fill-rule="evenodd">
        <g>
            <g>
                <g>
                    <g>
                        <path d="M0 0H24V24H0z" transform="translate(-1824 -162) translate(0 94) translate(0 48) translate(1824 20)"/>
                        <g transform="translate(-1824 -162) translate(0 94) translate(0 48) translate(1824 20) translate(4 4)">
                            <use fill="#919DB0" xlink:href="#y840pwk65a"/>
                        </g>
                    </g>
                </g>
            </g>
        </g>
    </g>
</svg>
