<svg xmlns="http://www.w3.org/2000/svg" xmlns:xlink="http://www.w3.org/1999/xlink" width="140" height="32" viewBox="0 0 140 32">
    <defs>
        <path id="prefix__a" d="M0 0.877L20.984 0.877 20.984 23.123 0 23.123z"/>
        <path id="prefix__c" d="M0.948 0.873L19.029 0.873 19.029 23.118 0.948 23.118z"/>
        <path id="prefix__e" d="M0.614 0L21.639 0 21.639 23.999 0.614 23.999z"/>
    </defs>
    <g fill="none" fill-rule="evenodd">
        <path d="M0 0H140V32H0z"/>
        <g transform="translate(1 4)">
            <mask id="prefix__b" fill="#fff">
                <use xlink:href="#prefix__a"/>
            </mask>
            <path fill="#092E6E" d="M19.784.882L16.21.878 10.763 15.85 5.297.877H0l8.096 22.246h5.302l7.51-20.628c.29-.782-.29-1.613-1.124-1.613" mask="url(#prefix__b)"/>
            <path fill="#092E6E" d="M50.872 12.205c.457-1.023.71-2.166.71-3.371s-.253-2.348-.71-3.371C49.667 2.753 46.705.877 43.676.877h.1-10.252v22.246h5.301V5.463h4.26c1.768 0 3.202 1.51 3.202 3.37 0 1.862-1.434 3.372-3.203 3.372H39.98h.001-.539c-.175 0-.317.143-.317.318 0 .064.023.12.056.17v.009l5.581 7.819 1.876 2.602h5.742l-5.387-7.088c1.594-.79 3.131-2.15 3.88-3.83M27.745.873H23.7v22.245H29V2.127c0-.692-.56-1.254-1.254-1.254"/>
            <g transform="translate(118)">
                <mask id="prefix__d" fill="#fff">
                    <use xlink:href="#prefix__c"/>
                </mask>
                <path fill="#092E6E" d="M.948.873h16.827c.693 0 1.255.562 1.255 1.254V5.52h-6.391v17.598H7.338V5.52H.948" mask="url(#prefix__d)"/>
            </g>
            <path fill="#092E6E" d="M72.356.873h-4.03v12.399l-8.98-12.4h-4.131v22.246H60.517V11.226l8.459 11.892h4.634V2.127c0-.692-.561-1.254-1.254-1.254M83.064 14.283h9.813V9.707h-9.813V5.471h11.173v-.296.296h.002V2.127c0-.693-.562-1.254-1.255-1.254h-15.22v22.245h17.04V18.52h-11.74v-4.237z"/>
            <g transform="translate(96)">
                <mask id="prefix__f" fill="#fff">
                    <use xlink:href="#prefix__e"/>
                </mask>
                <path fill="#092E6E" d="M18.26 15.765c-.15.2-.31.394-.475.581-.688.835-1.232 1.178-1.232 1.178-1.197.871-2.707 1.322-4.15 1.322-3.587 0-6.505-3.07-6.505-6.847 0-3.774 2.918-6.845 6.504-6.845 1.631 0 3.193.651 4.381 1.79.001 0 .574.528 1.198 1.355l2.487-2.613c.434-.456.474-1.173.067-1.653C18.383 1.488 15.277 0 12.015 0 5.728 0 .614 5.383.614 12c0 6.618 5.114 12 11.4 12 3.62 0 7.48-1.615 9.624-4.69l-3.38-3.544z" mask="url(#prefix__f)"/>
            </g>
        </g>
    </g>
</svg>
