<svg xmlns="http://www.w3.org/2000/svg" xmlns:xlink="http://www.w3.org/1999/xlink" width="30" height="30" viewBox="0 0 30 30">
    <defs>
        <path id="n6qogosyia" d="M0 0H1920V250H0z"/>
        <path id="wsihem313c" d="M0 0L23 0 23 22.817 0 22.817z"/>
    </defs>
    <g fill="none" fill-rule="evenodd">
        <g>
            <path fill="#FFF" d="M0 0H1920V4985H0z" transform="translate(-1759 -4846)"/>
            <g transform="translate(-1759 -4846) translate(0 4735)">
                <mask id="8zijy16ekb" fill="#fff">
                    <use xlink:href="#n6qogosyia"/>
                </mask>
                <path fill="#17191C" d="M0 0L1920 0 1920 158.895 1920 250 0 250z" mask="url(#8zijy16ekb)"/>
                <g mask="url(#8zijy16ekb)">
                    <g>
                        <g transform="translate(1759 111.111) translate(3.5 3.472)">
                            <mask id="s5x2ap8lcd" fill="#fff">
                                <use xlink:href="#wsihem313c"/>
                            </mask>
                            <path fill="#BEBEBE" d="M7.375 5.574c0-1.041-.721-1.768-1.755-1.77-1.037 0-1.777.73-1.776 1.754 0 1.017.73 1.75 1.743 1.752 1.047.003 1.788-.717 1.788-1.736zM3.865 19H7.12V8.868H3.865v10.133zm15.293 0c.004-.07.01-.128.01-.186 0-1.94.018-3.88-.011-5.82-.009-.577-.091-1.168-.242-1.725-.373-1.388-1.268-2.299-2.713-2.571-1.456-.275-2.71.082-3.62 1.323-.041.057-.094.106-.19.213V8.879H9.127v10.117h3.277v-.342c0-1.831.003-3.663-.002-5.494-.001-.587.198-1.084.627-1.486.918-.86 2.35-.493 2.698.705.098.337.14.701.142 1.053.014 1.753.007 3.505.007 5.257V19h3.282zM11.56.001h9.485c1.23 0 1.954.711 1.954 1.936.003 6.257.003 12.513 0 18.77 0 1.11-.61 1.908-1.579 2.077-.165.03-.337.031-.506.031-6.233.002-12.467.002-18.7.001-1.361 0-2.2-.833-2.2-2.18C.013 14.42.027 8.202 0 1.986-.005.73.976-.004 2.015 0c3.181.006 6.363.002 9.544.002z" mask="url(#s5x2ap8lcd)"/>
                        </g>
                    </g>
                </g>
            </g>
        </g>
    </g>
</svg>
