<svg xmlns="http://www.w3.org/2000/svg" xmlns:xlink="http://www.w3.org/1999/xlink" width="30" height="30" viewBox="0 0 30 30">
    <defs>
        <path id="nuf39q6nla" d="M0 0H1920V250H0z"/>
    </defs>
    <g fill="none" fill-rule="evenodd">
        <g>
            <path fill="#FFF" d="M0 0H1920V4985H0z" transform="translate(-1813 -4846)"/>
            <g transform="translate(-1813 -4846) translate(0 4735)">
                <mask id="ypgusqhr7b" fill="#fff">
                    <use xlink:href="#nuf39q6nla"/>
                </mask>
                <path fill="#17191C" d="M0 0L1920 0 1920 158.895 1920 250 0 250z" mask="url(#ypgusqhr7b)"/>
                <g mask="url(#ypgusqhr7b)">
                    <g>
                        <g>
                            <path fill="#BEBEBE" d="M13 0c7.18 0 13 5.774 13 12.897s-5.82 12.897-13 12.897S0 20.02 0 12.897 5.82 0 13 0zm1.854 6.33H11.66c-.57 0-1.018.168-1.332.5-.32.338-.475.794-.475 1.392v10.693c0 .49.132.892.403 1.23.27.33.624.49 1.08.49.46 0 .81-.16 1.067-.487.259-.331.39-.746.39-1.233V9h1.855c.559 0 1.029.176 1.397.521.368.35.57.825.601 1.414 0 .645-.18 1.16-.536 1.536-.385.403-.917.599-1.628.599h-.952v2.657h1.733c1.47 0 2.608-.5 3.382-1.485.678-.846 1.022-1.963 1.022-3.321 0-.413-.056-.833-.168-1.25-.112-.413-.278-.813-.493-1.188-.214-.374-.464-.705-.743-.985-.758-.776-1.905-1.17-3.41-1.17zm-5.665 6.726H6.63c-.408 0-.742.118-1.022.36-.274.239-.407.551-.407.957 0 .424.131.743.4.979.273.239.619.36 1.029.36h2.56v-2.656z" transform="translate(1813 111.111) translate(2 1.488) translate(0 .496)"/>
                            <path fill="#BEBEBE" d="M5 5.517H22V22.381999999999998H5z" transform="translate(1813 111.111) translate(2 1.488)"/>
                            <g fill="#17191C">
                                <path d="M7.207 7.827h-2.26v7.054H1.593V7.827H0V5.066h1.594V3.279C1.594 2 2.22 0 4.976 0l2.483.01v2.68H5.657c-.295 0-.71.144-.71.753v1.625H7.5l-.293 2.76z" transform="translate(1813 111.111) translate(2 1.488) translate(9 5.952)"/>
                            </g>
                        </g>
                        <path d="M0 0H30V29.762H0z" transform="translate(1813 111.111)"/>
                    </g>
                </g>
            </g>
        </g>
    </g>
</svg>
