<svg width="1320" height="133" viewBox="0 0 1320 133" fill="none" xmlns="http://www.w3.org/2000/svg">
<path d="M1285.26 72.2494C1292.37 72.2494 1297.92 69.4901 1301.93 63.9713C1305.93 58.4525 1307.95 51.3014 1307.95 42.518V40.8079C1307.95 36.4939 1307.45 32.4909 1306.44 28.7987C1305.43 25.1066 1303.91 21.9197 1301.97 19.2769C1299.98 16.5952 1297.61 14.5354 1294.82 13.0585C1292.02 11.6205 1288.83 10.8821 1285.29 10.8821C1281.87 10.8821 1278.76 11.6205 1275.97 13.0585C1273.17 14.5354 1270.84 16.5952 1268.93 19.2769C1267.03 21.9585 1265.51 25.1066 1264.46 28.7987C1263.37 32.4909 1262.83 36.4939 1262.83 40.8079V42.518C1262.83 46.8319 1263.34 50.7961 1264.35 54.4494C1265.36 58.0638 1266.83 61.2119 1268.74 63.8935C1270.64 66.5752 1273.01 68.635 1275.77 70.073C1278.53 71.511 1281.68 72.2494 1285.26 72.2494ZM1292.48 87.873C1293.88 84.9582 1295.17 82.5874 1296.41 80.8385C1297.61 79.0508 1298.35 78.0403 1298.59 77.8071C1294.16 81.2272 1289.1 82.9372 1283.55 82.9372C1278.73 82.9372 1274.26 81.8879 1270.21 79.7892C1266.13 77.6905 1262.67 74.8145 1259.72 71.2001C1256.81 67.5857 1254.55 63.3106 1252.96 58.3359C1251.36 53.4001 1250.59 48.1145 1250.59 42.518V40.6136C1250.59 34.7839 1251.4 29.3817 1253.08 24.407C1254.71 19.4712 1257.04 15.1572 1260.03 11.5428C1263.02 7.9284 1266.64 5.09127 1270.91 3.07031C1275.15 1.04935 1279.97 0.0388647 1285.29 0.0388647C1290.62 0.0388647 1295.44 1.04935 1299.67 3.07031C1303.95 5.13014 1307.56 7.9284 1310.56 11.5428C1313.55 15.1572 1315.84 19.4712 1317.51 24.4847C1319.15 29.4983 1320 34.9394 1320 40.7691V42.4791C1320 49.7079 1319.03 56.3538 1317.12 62.4167C1315.22 68.4407 1312.62 74.659 1309.31 80.994L1283.2 131.129H1270.45L1292.48 87.873ZM1129.72 100.271L1115.03 49.9411C1114.06 46.7153 1113.12 42.8677 1112.35 39.8363C1111.57 36.766 1110.83 34.5118 1110.83 33.7345C1110.83 34.3175 1110.05 36.6105 1109.31 39.642C1108.54 42.6734 1107.6 46.6765 1106.63 49.9411L1091.79 100.271H1129.72ZM1111.61 0.194323L1151.25 131.129H1138.66L1132.56 110.531H1088.72L1082.81 131.129H1070.8L1110.29 0.194323H1111.61ZM1008.38 91.2931V131.129H1020.59V91.2931L1053.93 1.51572H1042.12L1020.78 59.8516C1019.46 63.466 1017.94 68.0521 1016.97 71.6665C1015.65 75.4752 1014.87 78.5455 1014.87 78.701C1014.68 78.118 1013.75 75.0866 1012.77 71.2778C1011.45 67.6634 1010.29 63.466 1008.97 59.8516L987.241 1.51572H974.843L1008.38 91.2931ZM936.406 100.271L921.715 49.9411C920.782 46.7153 919.81 42.8677 919.033 39.8363C918.256 36.766 917.517 34.5118 917.517 33.7345C917.517 34.3175 916.74 36.6105 916.002 39.642C915.224 42.6734 914.292 46.6765 913.32 49.9411L898.474 100.271H936.406ZM918.295 0.194323L957.937 131.129H945.344L939.243 110.531H895.442L889.535 131.129H877.526L916.973 0.194323H918.295ZM778.382 41.352C779.898 44.228 781.802 47.8424 783.318 50.2909L832.676 132.645H834.774V1.51572H823.154V80.0612C823.154 83.6757 823.348 87.873 823.543 91.0988C823.543 94.7132 823.737 97.3949 823.737 97.5892C823.543 97.0062 822.416 94.7132 820.9 91.8761C819.384 89.0001 817.285 85.58 815.731 82.7429L766.178 0H764.468V131.129H775.895V52.9726C775.895 49.9411 775.7 45.7437 775.7 42.1293C775.7 38.5149 775.506 35.8332 775.506 35.8332C775.7 36.4162 776.866 38.5149 778.382 41.352ZM658.717 41.352C660.233 44.228 662.138 47.8424 663.653 50.2909L713.011 132.645H715.11V1.51572H703.49V80.0612C703.49 83.6757 703.684 87.873 703.878 91.0988C703.878 94.7132 704.073 97.3949 704.073 97.5892C703.878 97.0062 702.751 94.7132 701.235 91.8761C699.72 89.0001 697.621 85.58 696.066 82.7429L646.514 0H644.804V131.129H656.23V52.9726C656.23 49.9411 656.036 45.7437 656.036 42.1293C656.036 38.5149 655.841 35.8332 655.841 35.8332C656.036 36.4162 657.202 38.5149 658.717 41.352ZM589.772 65.9534C589.772 33.1904 567.658 11.0764 536.605 11.0764C504.774 11.0764 483.049 33.1904 483.243 66.7307C483.049 99.4936 504.969 121.608 536.605 121.608C568.046 121.608 589.772 99.4936 589.772 65.9534ZM488.374 113.213C476.559 100.426 470.651 84.9971 470.846 66.8861C470.651 47.0651 476.947 30.8586 489.734 18.4607C502.443 6.10176 518.105 0 536.605 0C556.62 0 572.632 6.4904 584.447 19.238C596.262 32.18 602.169 47.6481 602.169 65.759C602.169 85.58 595.873 101.592 583.126 113.99C570.339 126.388 554.91 132.684 536.41 132.684C516.201 132.645 500.188 126.194 488.374 113.213ZM385.771 1.51572V131.129H439.521V120.247H397.78V1.51572H385.771ZM276.367 1.51572V131.129H288.376V97.0062L299.802 76.9909L331.244 131.129H344.963L307.42 66.342L342.709 1.51572H329.184L288.376 76.6412V1.51572H276.367ZM219.935 65.9534C219.935 33.1904 197.821 11.0764 166.768 11.0764C134.938 11.0764 113.213 33.1904 113.407 66.7307C113.213 99.4936 135.132 121.608 166.768 121.608C198.21 121.608 219.935 99.4936 219.935 65.9534ZM118.537 113.213C106.722 100.426 100.815 84.9971 101.009 66.8861C100.815 47.0651 107.111 30.8586 119.898 18.4607C132.645 6.10176 148.269 0 166.768 0C186.784 0 202.796 6.4904 214.611 19.238C226.426 32.18 232.333 47.6481 232.333 65.759C232.333 85.58 226.037 101.592 213.289 113.99C200.503 126.388 185.074 132.684 166.574 132.684C146.364 132.645 130.352 126.194 118.537 113.213ZM16.9839 87.873C28.7987 87.873 37.1935 84.0643 43.1009 77.3796C48.6197 70.8892 51.4957 61.5617 51.4957 50.8739V49.1638C51.4957 26.8555 40.2638 12.3978 16.9839 12.3978H12.0092V87.873H16.9839ZM17.1393 1.51572C31.6358 1.51572 43.0621 6.29608 51.2625 14.4965C59.2686 22.8913 63.6603 34.7062 63.6603 49.0084V51.1071C63.6603 65.2149 59.463 77.0298 51.4568 85.4246C43.2564 93.8193 32.0245 98.5997 17.1393 98.5997H12.0092V131.207H0V1.51572H17.1393Z" fill="black"/>
</svg>
