<svg width="204" height="35" viewBox="0 0 204 35" fill="none" xmlns="http://www.w3.org/2000/svg">
<path d="M23.064 10.336C23.064 13.12 22.104 15.44 20.184 17.296C18.296 19.12 15.4 20.032 11.496 20.032H5.064V34H0.696V0.543999H11.496C15.272 0.543999 18.136 1.456 20.088 3.28C22.072 5.104 23.064 7.456 23.064 10.336ZM11.496 16.432C13.928 16.432 15.72 15.904 16.872 14.848C18.024 13.792 18.6 12.288 18.6 10.336C18.6 6.208 16.232 4.144 11.496 4.144H5.064V16.432H11.496ZM32.7649 0.543999V21.712C32.7649 24.688 33.4849 26.896 34.9249 28.336C36.3969 29.776 38.4289 30.496 41.0209 30.496C43.5809 30.496 45.5809 29.776 47.0209 28.336C48.4929 26.896 49.2289 24.688 49.2289 21.712V0.543999H53.5969V21.664C53.5969 24.448 53.0369 26.8 51.9169 28.72C50.7969 30.608 49.2769 32.016 47.3569 32.944C45.4689 33.872 43.3409 34.336 40.9729 34.336C38.6049 34.336 36.4609 33.872 34.5409 32.944C32.6529 32.016 31.1489 30.608 30.0289 28.72C28.9409 26.8 28.3969 24.448 28.3969 21.664V0.543999H32.7649ZM78.4995 34L70.5315 20.32H65.2515V34H60.8835V0.543999H71.6835C74.2115 0.543999 76.3395 0.975999 78.0675 1.84C79.8275 2.704 81.1395 3.872 82.0035 5.344C82.8675 6.816 83.2995 8.496 83.2995 10.384C83.2995 12.688 82.6275 14.72 81.2835 16.48C79.9715 18.24 77.9875 19.408 75.3315 19.984L83.7315 34H78.4995ZM65.2515 16.816H71.6835C74.0515 16.816 75.8275 16.24 77.0115 15.088C78.1955 13.904 78.7875 12.336 78.7875 10.384C78.7875 8.4 78.1955 6.864 77.0115 5.776C75.8595 4.688 74.0835 4.144 71.6835 4.144H65.2515V16.816ZM94.3586 0.543999V21.712C94.3586 24.688 95.0786 26.896 96.5186 28.336C97.9906 29.776 100.023 30.496 102.615 30.496C105.175 30.496 107.175 29.776 108.615 28.336C110.087 26.896 110.823 24.688 110.823 21.712V0.543999H115.191V21.664C115.191 24.448 114.631 26.8 113.511 28.72C112.391 30.608 110.871 32.016 108.951 32.944C107.063 33.872 104.935 34.336 102.567 34.336C100.199 34.336 98.0546 33.872 96.1346 32.944C94.2466 32.016 92.7426 30.608 91.6226 28.72C90.5346 26.8 89.9906 24.448 89.9906 21.664V0.543999H94.3586ZM147.821 10.24C146.893 8.288 145.549 6.784 143.789 5.728C142.029 4.64 139.981 4.096 137.645 4.096C135.309 4.096 133.197 4.64 131.309 5.728C129.453 6.784 127.981 8.32 126.893 10.336C125.837 12.32 125.309 14.624 125.309 17.248C125.309 19.872 125.837 22.176 126.893 24.16C127.981 26.144 129.453 27.68 131.309 28.768C133.197 29.824 135.309 30.352 137.645 30.352C140.909 30.352 143.597 29.376 145.709 27.424C147.821 25.472 149.053 22.832 149.405 19.504H136.061V15.952H154.061V19.312C153.805 22.064 152.941 24.592 151.469 26.896C149.997 29.168 148.061 30.976 145.661 32.32C143.261 33.632 140.589 34.288 137.645 34.288C134.541 34.288 131.709 33.568 129.149 32.128C126.589 30.656 124.557 28.624 123.053 26.032C121.581 23.44 120.845 20.512 120.845 17.248C120.845 13.984 121.581 11.056 123.053 8.464C124.557 5.84 126.589 3.808 129.149 2.368C131.709 0.895998 134.541 0.159998 137.645 0.159998C141.197 0.159998 144.333 1.04 147.053 2.8C149.805 4.56 151.805 7.04 153.053 10.24H147.821ZM164.205 0.543999V34H159.837V0.543999H164.205ZM186.817 34.336C183.713 34.336 180.881 33.616 178.321 32.176C175.761 30.704 173.729 28.672 172.225 26.08C170.753 23.456 170.017 20.512 170.017 17.248C170.017 13.984 170.753 11.056 172.225 8.464C173.729 5.84 175.761 3.808 178.321 2.368C180.881 0.895998 183.713 0.159998 186.817 0.159998C189.953 0.159998 192.801 0.895998 195.361 2.368C197.921 3.808 199.937 5.824 201.409 8.416C202.881 11.008 203.617 13.952 203.617 17.248C203.617 20.544 202.881 23.488 201.409 26.08C199.937 28.672 197.921 30.704 195.361 32.176C192.801 33.616 189.953 34.336 186.817 34.336ZM186.817 30.544C189.153 30.544 191.249 30 193.105 28.912C194.993 27.824 196.465 26.272 197.521 24.256C198.609 22.24 199.153 19.904 199.153 17.248C199.153 14.56 198.609 12.224 197.521 10.24C196.465 8.224 195.009 6.672 193.153 5.584C191.297 4.496 189.185 3.952 186.817 3.952C184.449 3.952 182.337 4.496 180.481 5.584C178.625 6.672 177.153 8.224 176.065 10.24C175.009 12.224 174.481 14.56 174.481 17.248C174.481 19.904 175.009 22.24 176.065 24.256C177.153 26.272 178.625 27.824 180.481 28.912C182.369 30 184.481 30.544 186.817 30.544Z" fill="black"/>
<path d="M20.184 17.296L20.8788 18.0152L20.879 18.015L20.184 17.296ZM5.064 20.032V19.032H4.064V20.032H5.064ZM5.064 34V35H6.064V34H5.064ZM0.696 34H-0.304V35H0.696V34ZM0.696 0.543999V-0.456001H-0.304V0.543999H0.696ZM20.088 3.28L19.4052 4.01068L19.4112 4.01617L20.088 3.28ZM16.872 14.848L17.5477 15.5852L17.5477 15.5852L16.872 14.848ZM5.064 4.144V3.144H4.064V4.144H5.064ZM5.064 16.432H4.064V17.432H5.064V16.432ZM22.064 10.336C22.064 12.8618 21.205 14.9182 19.489 16.577L20.879 18.015C23.003 15.9618 24.064 13.3782 24.064 10.336H22.064ZM19.4892 16.5768C17.8613 18.1495 15.2653 19.032 11.496 19.032V21.032C15.5347 21.032 18.7307 20.0905 20.8788 18.0152L19.4892 16.5768ZM11.496 19.032H5.064V21.032H11.496V19.032ZM4.064 20.032V34H6.064V20.032H4.064ZM5.064 33H0.696V35H5.064V33ZM1.696 34V0.543999H-0.304V34H1.696ZM0.696 1.544H11.496V-0.456001H0.696V1.544ZM11.496 1.544C15.1234 1.544 17.703 2.42006 19.4053 4.01065L20.7707 2.54934C18.569 0.491935 15.4206 -0.456001 11.496 -0.456001V1.544ZM19.4112 4.01617C21.1739 5.63668 22.064 7.71424 22.064 10.336H24.064C24.064 7.19776 22.9701 4.57131 20.7648 2.54383L19.4112 4.01617ZM11.496 17.432C14.0444 17.432 16.132 16.8829 17.5477 15.5852L16.1963 14.1108C15.308 14.9251 13.8116 15.432 11.496 15.432V17.432ZM17.5477 15.5852C18.9557 14.2945 19.6 12.4935 19.6 10.336H17.6C17.6 12.0825 17.0923 13.2895 16.1963 14.1108L17.5477 15.5852ZM19.6 10.336C19.6 8.07937 18.9464 6.21537 17.4811 4.93816C16.042 3.68384 13.987 3.144 11.496 3.144V5.144C13.741 5.144 15.238 5.63616 16.1669 6.44584C17.0696 7.23262 17.6 8.46462 17.6 10.336H19.6ZM11.496 3.144H5.064V5.144H11.496V3.144ZM4.064 4.144V16.432H6.064V4.144H4.064ZM5.064 17.432H11.496V15.432H5.064V17.432ZM32.7649 0.543999H33.7649V-0.456001H32.7649V0.543999ZM34.9249 28.336L34.2177 29.0431L34.2256 29.0508L34.9249 28.336ZM47.0209 28.336L46.3215 27.6211L46.3138 27.6289L47.0209 28.336ZM49.2289 0.543999V-0.456001H48.2289V0.543999H49.2289ZM53.5969 0.543999H54.5969V-0.456001H53.5969V0.543999ZM51.9169 28.72L52.777 29.2302L52.7807 29.2239L51.9169 28.72ZM47.3569 32.944L46.9217 32.0436L46.9158 32.0466L47.3569 32.944ZM34.5409 32.944L34.0997 33.8415L34.1057 33.8443L34.5409 32.944ZM30.0289 28.72L29.1589 29.213L29.1638 29.2217L29.1688 29.2302L30.0289 28.72ZM28.3969 0.543999V-0.456001H27.3969V0.543999H28.3969ZM31.7649 0.543999V21.712H33.7649V0.543999H31.7649ZM31.7649 21.712C31.7649 24.831 32.5186 27.344 34.2178 29.0431L35.632 27.6289C34.4511 26.448 33.7649 24.545 33.7649 21.712H31.7649ZM34.2256 29.0508C35.9297 30.7179 38.2385 31.496 41.0209 31.496V29.496C38.6193 29.496 36.864 28.8341 35.6242 27.6212L34.2256 29.0508ZM41.0209 31.496C43.7742 31.496 46.0551 30.716 47.728 29.0431L46.3138 27.6289C45.1067 28.836 43.3875 29.496 41.0209 29.496V31.496ZM47.7202 29.0508C49.4563 27.3525 50.2289 24.8365 50.2289 21.712H48.2289C48.2289 24.5395 47.5295 26.4395 46.3216 27.6212L47.7202 29.0508ZM50.2289 21.712V0.543999H48.2289V21.712H50.2289ZM49.2289 1.544H53.5969V-0.456001H49.2289V1.544ZM52.5969 0.543999V21.664H54.5969V0.543999H52.5969ZM52.5969 21.664C52.5969 24.3151 52.064 26.4832 51.0531 28.2161L52.7807 29.2239C54.0098 27.1168 54.5969 24.5809 54.5969 21.664H52.5969ZM51.0568 28.2098C50.0339 29.9341 48.6594 31.2038 46.9217 32.0437L47.792 33.8443C49.8944 32.8282 51.5598 31.2819 52.7769 29.2302L51.0568 28.2098ZM46.9158 32.0466C45.1814 32.899 43.2073 33.336 40.9729 33.336V35.336C43.4745 35.336 45.7564 34.845 47.798 33.8414L46.9158 32.0466ZM40.9729 33.336C38.7388 33.336 36.746 32.8991 34.976 32.0437L34.1057 33.8443C36.1758 34.8449 38.471 35.336 40.9729 35.336V33.336ZM34.982 32.0466C33.2761 31.2081 31.9144 29.9384 30.8889 28.2098L29.1688 29.2302C30.3834 31.2776 32.0297 32.8239 34.0998 33.8414L34.982 32.0466ZM30.8989 28.227C29.9156 26.4918 29.3969 24.3196 29.3969 21.664H27.3969C27.3969 24.5764 27.9661 27.1082 29.1589 29.213L30.8989 28.227ZM29.3969 21.664V0.543999H27.3969V21.664H29.3969ZM28.3969 1.544H32.7649V-0.456001H28.3969V1.544ZM78.4995 34L77.6354 34.5033L77.9247 35H78.4995V34ZM70.5315 20.32L71.3956 19.8167L71.1063 19.32H70.5315V20.32ZM65.2515 20.32V19.32H64.2515V20.32H65.2515ZM65.2515 34V35H66.2515V34H65.2515ZM60.8835 34H59.8835V35H60.8835V34ZM60.8835 0.543999V-0.456001H59.8835V0.543999H60.8835ZM78.0675 1.84L77.6203 2.73445L77.6268 2.73767L78.0675 1.84ZM81.2835 16.48L80.4887 15.873L80.4818 15.8823L81.2835 16.48ZM75.3315 19.984L75.1196 19.0067L73.7571 19.3022L74.4737 20.4981L75.3315 19.984ZM83.7315 34V35H85.4967L84.5893 33.4859L83.7315 34ZM65.2515 16.816H64.2515V17.816H65.2515V16.816ZM77.0115 15.088L77.7089 15.8048L77.7186 15.7951L77.0115 15.088ZM77.0115 5.776L76.3248 6.50308L76.3349 6.51233L77.0115 5.776ZM65.2515 4.144V3.144H64.2515V4.144H65.2515ZM79.3636 33.4967L71.3956 19.8167L69.6674 20.8233L77.6354 34.5033L79.3636 33.4967ZM70.5315 19.32H65.2515V21.32H70.5315V19.32ZM64.2515 20.32V34H66.2515V20.32H64.2515ZM65.2515 33H60.8835V35H65.2515V33ZM61.8835 34V0.543999H59.8835V34H61.8835ZM60.8835 1.544H71.6835V-0.456001H60.8835V1.544ZM71.6835 1.544C74.1023 1.544 76.0672 1.95788 77.6203 2.73443L78.5147 0.945572C76.6118 -0.00588476 74.3207 -0.456001 71.6835 -0.456001V1.544ZM77.6268 2.73767C79.2378 3.52851 80.3904 4.57128 81.1411 5.8502L82.8659 4.8378C81.8886 3.17272 80.4172 1.87949 78.5082 0.942332L77.6268 2.73767ZM81.1411 5.8502C81.9057 7.15281 82.2995 8.65457 82.2995 10.384H84.2995C84.2995 8.33743 83.8293 6.47919 82.8659 4.8378L81.1411 5.8502ZM82.2995 10.384C82.2995 12.4782 81.6939 14.2948 80.4887 15.8731L82.0783 17.0869C83.5611 15.1452 84.2995 12.8978 84.2995 10.384H82.2995ZM80.4818 15.8823C79.3461 17.4057 77.5979 18.4692 75.1196 19.0067L75.5434 20.9613C78.3771 20.3468 80.5969 19.0743 82.0852 17.0777L80.4818 15.8823ZM74.4737 20.4981L82.8737 34.5141L84.5893 33.4859L76.1893 19.4699L74.4737 20.4981ZM83.7315 33H78.4995V35H83.7315V33ZM65.2515 17.816H71.6835V15.816H65.2515V17.816ZM71.6835 17.816C74.1989 17.816 76.2704 17.2044 77.7089 15.8047L76.3141 14.3713C75.3847 15.2756 73.9041 15.816 71.6835 15.816V17.816ZM77.7186 15.7951C79.1212 14.3925 79.7875 12.5537 79.7875 10.384H77.7875C77.7875 12.1183 77.2698 13.4155 76.3044 14.3809L77.7186 15.7951ZM79.7875 10.384C79.7875 8.1905 79.1249 6.35993 77.6881 5.03967L76.3349 6.51233C77.2661 7.36807 77.7875 8.6095 77.7875 10.384H79.7875ZM77.6981 5.04899C76.2845 3.71393 74.2106 3.144 71.6835 3.144V5.144C73.9564 5.144 75.4345 5.66206 76.3249 6.50301L77.6981 5.04899ZM71.6835 3.144H65.2515V5.144H71.6835V3.144ZM64.2515 4.144V16.816H66.2515V4.144H64.2515ZM94.3586 0.543999H95.3586V-0.456001H94.3586V0.543999ZM96.5186 28.336L95.8115 29.0431L95.8193 29.0508L96.5186 28.336ZM108.615 28.336L107.915 27.6211L107.908 27.6289L108.615 28.336ZM110.823 0.543999V-0.456001H109.823V0.543999H110.823ZM115.191 0.543999H116.191V-0.456001H115.191V0.543999ZM113.511 28.72L114.371 29.2302L114.374 29.2239L113.511 28.72ZM108.951 32.944L108.515 32.0436L108.51 32.0466L108.951 32.944ZM96.1346 32.944L95.6935 33.8415L95.6995 33.8443L96.1346 32.944ZM91.6226 28.72L90.7526 29.213L90.7575 29.2217L90.7626 29.2302L91.6226 28.72ZM89.9906 0.543999V-0.456001H88.9906V0.543999H89.9906ZM93.3586 0.543999V21.712H95.3586V0.543999H93.3586ZM93.3586 21.712C93.3586 24.831 94.1124 27.344 95.8115 29.0431L97.2257 27.6289C96.0449 26.448 95.3586 24.545 95.3586 21.712H93.3586ZM95.8193 29.0508C97.5235 30.7179 99.8322 31.496 102.615 31.496V29.496C100.213 29.496 98.4578 28.8341 97.2179 27.6212L95.8193 29.0508ZM102.615 31.496C105.368 31.496 107.649 30.716 109.322 29.0431L107.908 27.6289C106.7 28.836 104.981 29.496 102.615 29.496V31.496ZM109.314 29.0508C111.05 27.3525 111.823 24.8365 111.823 21.712H109.823C109.823 24.5395 109.123 26.4395 107.915 27.6212L109.314 29.0508ZM111.823 21.712V0.543999H109.823V21.712H111.823ZM110.823 1.544H115.191V-0.456001H110.823V1.544ZM114.191 0.543999V21.664H116.191V0.543999H114.191ZM114.191 21.664C114.191 24.3151 113.658 26.4832 112.647 28.2161L114.374 29.2239C115.604 27.1168 116.191 24.5809 116.191 21.664H114.191ZM112.651 28.2098C111.628 29.9341 110.253 31.2038 108.515 32.0437L109.386 33.8443C111.488 32.8282 113.154 31.2819 114.371 29.2302L112.651 28.2098ZM108.51 32.0466C106.775 32.899 104.801 33.336 102.567 33.336V35.336C105.068 35.336 107.35 34.845 109.392 33.8414L108.51 32.0466ZM102.567 33.336C100.333 33.336 98.3397 32.8991 96.5698 32.0437L95.6995 33.8443C97.7695 34.8449 100.065 35.336 102.567 35.336V33.336ZM96.5757 32.0466C94.8699 31.2081 93.5081 29.9384 92.4827 28.2098L90.7626 29.2302C91.9771 31.2776 93.6234 32.8239 95.6935 33.8414L96.5757 32.0466ZM92.4926 28.227C91.5094 26.4918 90.9906 24.3196 90.9906 21.664H88.9906C88.9906 24.5764 89.5599 27.1082 90.7526 29.213L92.4926 28.227ZM90.9906 21.664V0.543999H88.9906V21.664H90.9906ZM89.9906 1.544H94.3586V-0.456001H89.9906V1.544ZM147.821 10.24L146.918 10.6694L147.189 11.24H147.821V10.24ZM143.789 5.728L143.263 6.57867L143.275 6.58549L143.789 5.728ZM131.309 5.728L131.804 6.59717L131.809 6.59443L131.309 5.728ZM126.893 10.336L126.013 9.86106L126.011 9.86615L126.893 10.336ZM126.893 24.16L126.01 24.6299L126.016 24.6408L126.893 24.16ZM131.309 28.768L130.804 29.6307L130.812 29.6358L130.821 29.6408L131.309 28.768ZM145.709 27.424L146.388 28.1584L146.388 28.1584L145.709 27.424ZM149.405 19.504L150.4 19.6092L150.517 18.504H149.405V19.504ZM136.061 19.504H135.061V20.504H136.061V19.504ZM136.061 15.952V14.952H135.061V15.952H136.061ZM154.061 15.952H155.061V14.952H154.061V15.952ZM154.061 19.312L155.057 19.4046L155.061 19.3584V19.312H154.061ZM151.469 26.896L152.309 27.4398L152.312 27.4344L151.469 26.896ZM145.661 32.32L146.141 33.1975L146.15 33.1925L145.661 32.32ZM129.149 32.128L128.651 32.9949L128.659 32.9996L129.149 32.128ZM123.053 26.032L122.184 26.5258L122.188 26.5339L123.053 26.032ZM123.053 8.464L122.186 7.96672L122.184 7.97017L123.053 8.464ZM129.149 2.368L129.64 3.23961L129.648 3.2349L129.149 2.368ZM147.053 2.8L146.51 3.63958L146.514 3.64245L147.053 2.8ZM153.053 10.24V11.24H154.517L153.985 9.87665L153.053 10.24ZM148.724 9.81064C147.717 7.69071 146.242 6.03335 144.304 4.8705L143.275 6.58549C144.857 7.53464 146.07 8.88528 146.918 10.6694L148.724 9.81064ZM144.315 4.8774C142.377 3.67957 140.142 3.096 137.645 3.096V5.096C139.82 5.096 141.681 5.60043 143.263 6.57859L144.315 4.8774ZM137.645 3.096C135.147 3.096 132.861 3.67976 130.81 4.86157L131.809 6.59443C133.534 5.60023 135.471 5.096 137.645 5.096V3.096ZM130.815 4.85883C128.784 6.01431 127.183 7.69264 126.013 9.86107L127.773 10.8109C128.779 8.94736 130.123 7.55369 131.804 6.59716L130.815 4.85883ZM126.011 9.86615C124.866 12.0173 124.309 14.4877 124.309 17.248H126.309C126.309 14.7603 126.809 12.6227 127.776 10.8058L126.011 9.86615ZM124.309 17.248C124.309 20.0083 124.866 22.4787 126.011 24.6298L127.776 23.6902C126.809 21.8733 126.309 19.7357 126.309 17.248H124.309ZM126.016 24.6408C127.187 26.7748 128.783 28.4465 130.804 29.6307L131.815 27.9053C130.123 26.9135 128.776 25.5132 127.77 23.6792L126.016 24.6408ZM130.821 29.6408C132.87 30.7868 135.152 31.352 137.645 31.352V29.352C135.466 29.352 133.524 28.8612 131.797 27.8952L130.821 29.6408ZM137.645 31.352C141.124 31.352 144.066 30.3044 146.388 28.1584L145.031 26.6896C143.128 28.4476 140.694 29.352 137.645 29.352V31.352ZM146.388 28.1584C148.707 26.0154 150.027 23.1364 150.4 19.6092L148.411 19.3988C148.08 22.5276 146.936 24.9286 145.031 26.6896L146.388 28.1584ZM149.405 18.504H136.061V20.504H149.405V18.504ZM137.061 19.504V15.952H135.061V19.504H137.061ZM136.061 16.952H154.061V14.952H136.061V16.952ZM153.061 15.952V19.312H155.061V15.952H153.061ZM153.066 19.2194C152.824 21.8145 152.012 24.1894 150.627 26.3576L152.312 27.4344C153.871 24.9946 154.786 22.3135 155.057 19.4046L153.066 19.2194ZM150.63 26.3523C149.248 28.4855 147.433 30.1816 145.173 31.4475L146.15 33.1925C148.689 31.7704 150.747 29.8505 152.309 27.4397L150.63 26.3523ZM145.182 31.4426C142.94 32.6681 140.435 33.288 137.645 33.288V35.288C140.744 35.288 143.583 34.5959 146.141 33.1974L145.182 31.4426ZM137.645 33.288C134.703 33.288 132.041 32.6074 129.64 31.2564L128.659 32.9996C131.377 34.5286 134.38 35.288 137.645 35.288V33.288ZM129.648 31.2611C127.242 29.8779 125.336 27.9728 123.918 25.5301L122.188 26.5339C123.779 29.2752 125.936 31.4341 128.651 32.9949L129.648 31.2611ZM123.923 25.5382C122.544 23.1108 121.845 20.3558 121.845 17.248H119.845C119.845 20.6682 120.618 23.7692 122.184 26.5258L123.923 25.5382ZM121.845 17.248C121.845 14.1402 122.544 11.3852 123.923 8.95782L122.184 7.97017C120.618 10.7268 119.845 13.8278 119.845 17.248H121.845ZM123.921 8.96128C125.338 6.48892 127.242 4.58841 129.64 3.23957L128.659 1.49642C125.937 3.02758 123.777 5.19108 122.186 7.96672L123.921 8.96128ZM129.648 3.2349C132.048 1.85463 134.707 1.16 137.645 1.16V-0.840002C134.376 -0.840002 131.37 -0.0626309 128.651 1.50109L129.648 3.2349ZM137.645 1.16C141.024 1.16 143.967 1.9943 146.51 3.63957L147.597 1.96043C144.699 0.0856926 141.371 -0.840002 137.645 -0.840002V1.16ZM146.514 3.64245C149.079 5.28227 150.946 7.5898 152.122 10.6033L153.985 9.87665C152.664 6.4902 150.532 3.83773 147.592 1.95755L146.514 3.64245ZM153.053 9.24H147.821V11.24H153.053V9.24ZM164.205 0.543999H165.205V-0.456001H164.205V0.543999ZM164.205 34V35H165.205V34H164.205ZM159.837 34H158.837V35H159.837V34ZM159.837 0.543999V-0.456001H158.837V0.543999H159.837ZM163.205 0.543999V34H165.205V0.543999H163.205ZM164.205 33H159.837V35H164.205V33ZM160.837 34V0.543999H158.837V34H160.837ZM159.837 1.544H164.205V-0.456001H159.837V1.544ZM178.321 32.176L177.823 33.0429L177.831 33.0476L178.321 32.176ZM172.225 26.08L171.353 26.5693L171.357 26.5756L171.36 26.5819L172.225 26.08ZM172.225 8.464L171.358 7.96672L171.356 7.97017L172.225 8.464ZM178.321 2.368L178.811 3.23961L178.82 3.2349L178.321 2.368ZM195.361 2.368L194.863 3.23494L194.871 3.23957L195.361 2.368ZM201.409 8.416L202.279 7.92217L202.279 7.92217L201.409 8.416ZM195.361 32.176L195.851 33.0476L195.86 33.0429L195.361 32.176ZM193.105 28.912L192.606 28.0455L192.599 28.0493L193.105 28.912ZM197.521 24.256L196.641 23.781L196.635 23.792L197.521 24.256ZM197.521 10.24L196.635 10.704L196.64 10.7125L196.644 10.7208L197.521 10.24ZM193.153 5.584L192.647 6.4467L192.647 6.4467L193.153 5.584ZM180.481 5.584L180.987 6.4467L180.987 6.4467L180.481 5.584ZM176.065 10.24L175.185 9.76506L175.182 9.77015L176.065 10.24ZM176.065 24.256L175.179 24.72L175.185 24.7309L176.065 24.256ZM180.481 28.912L179.975 29.7747L179.982 29.7784L180.481 28.912ZM186.817 33.336C183.875 33.336 181.213 32.6554 178.811 31.3044L177.831 33.0476C180.549 34.5766 183.551 35.336 186.817 35.336V33.336ZM178.82 31.3091C176.414 29.9259 174.507 28.0208 173.09 25.5781L171.36 26.5819C172.951 29.3232 175.108 31.4821 177.823 33.0429L178.82 31.3091ZM173.097 25.5907C171.716 23.1287 171.017 20.3556 171.017 17.248H169.017C169.017 20.6684 169.79 23.7833 171.353 26.5693L173.097 25.5907ZM171.017 17.248C171.017 14.1402 171.716 11.3852 173.095 8.95782L171.356 7.97017C169.79 10.7268 169.017 13.8278 169.017 17.248H171.017ZM173.093 8.96128C174.51 6.48892 176.413 4.58841 178.811 3.23957L177.831 1.49642C175.109 3.02758 172.948 5.19108 171.358 7.96672L173.093 8.96128ZM178.82 3.2349C181.22 1.85463 183.879 1.16 186.817 1.16V-0.840002C183.547 -0.840002 180.542 -0.0626309 177.823 1.50109L178.82 3.2349ZM186.817 1.16C189.789 1.16 192.464 1.85554 194.863 3.2349L195.86 1.50109C193.138 -0.0635462 190.117 -0.840002 186.817 -0.840002V1.16ZM194.871 3.23957C197.27 4.58908 199.156 6.4734 200.54 8.90982L202.279 7.92217C200.718 5.1746 198.572 3.02691 195.851 1.49642L194.871 3.23957ZM200.54 8.90982C201.917 11.3358 202.617 14.1064 202.617 17.248H204.617C204.617 13.7976 203.845 10.6802 202.279 7.92217L200.54 8.90982ZM202.617 17.248C202.617 20.3896 201.917 23.1602 200.54 25.5862L202.279 26.5738C203.845 23.8158 204.617 20.6984 204.617 17.248H202.617ZM200.54 25.5862C199.155 28.0245 197.266 29.927 194.863 31.3091L195.86 33.0429C198.576 31.481 200.719 29.3195 202.279 26.5738L200.54 25.5862ZM194.871 31.3044C192.471 32.6545 189.793 33.336 186.817 33.336V35.336C190.113 35.336 193.132 34.5775 195.851 33.0476L194.871 31.3044ZM186.817 31.544C189.315 31.544 191.588 30.9602 193.611 29.7747L192.599 28.0493C190.91 29.0398 188.991 29.544 186.817 29.544V31.544ZM193.604 29.7784C195.664 28.5914 197.267 26.8963 198.407 24.72L196.635 23.792C195.663 25.6477 194.322 27.0566 192.606 28.0456L193.604 29.7784ZM198.401 24.7309C199.58 22.5473 200.153 20.0432 200.153 17.248H198.153C198.153 19.7648 197.639 21.9327 196.641 23.7811L198.401 24.7309ZM200.153 17.248C200.153 14.4235 199.581 11.916 198.398 9.75917L196.644 10.7208C197.638 12.532 198.153 14.6965 198.153 17.248H200.153ZM198.407 9.77599C197.269 7.60416 195.686 5.90956 193.659 4.7213L192.647 6.4467C194.332 7.43444 195.661 8.84383 196.635 10.704L198.407 9.77599ZM193.659 4.7213C191.634 3.53452 189.344 2.952 186.817 2.952V4.952C189.026 4.952 190.96 5.45748 192.647 6.4467L193.659 4.7213ZM186.817 2.952C184.29 2.952 182 3.53452 179.975 4.7213L180.987 6.4467C182.674 5.45748 184.608 4.952 186.817 4.952V2.952ZM179.975 4.7213C177.951 5.90792 176.354 7.59886 175.185 9.76507L176.945 10.7149C177.952 8.84913 179.299 7.43608 180.987 6.4467L179.975 4.7213ZM175.182 9.77015C174.036 11.9246 173.481 14.4281 173.481 17.248H175.481C175.481 14.6919 175.983 12.5234 176.948 10.7098L175.182 9.77015ZM173.481 17.248C173.481 20.0386 174.037 22.5387 175.179 24.72L176.951 23.792C175.982 21.9413 175.481 19.7694 175.481 17.248H173.481ZM175.185 24.7309C176.354 26.8971 177.951 28.5881 179.975 29.7747L180.987 28.0493C179.299 27.0599 177.952 25.6469 176.945 23.7811L175.185 24.7309ZM179.982 29.7784C182.033 30.9602 184.319 31.544 186.817 31.544V29.544C184.643 29.544 182.706 29.0398 180.98 28.0456L179.982 29.7784Z" fill="black"/>
</svg>
