<svg width="80" height="80" viewBox="0 0 80 80" fill="none" xmlns="http://www.w3.org/2000/svg"><path d="M54.377 21.2076C46.0833 17.6855 40.8744 22.8942 39.0033 25.3745C37.1322 22.8942 31.9233 17.6855 23.6297 21.158C23.5791 21.2076 16.2968 24.1344 17.0554 33.4108C17.0554 33.7084 16.9543 40.2566 22.8711 45.7133C22.8711 45.7133 31.8728 53.6999 38.447 59.5039L39.0539 60L39.6607 59.5039C46.1844 53.7992 55.0344 45.8125 55.1355 45.7133C61.0524 40.2566 60.9512 33.7084 60.9512 33.51C61.6592 24.1343 54.4275 21.2076 54.377 21.2076ZM59.1812 33.51C59.1812 33.5596 59.2318 39.6117 53.9218 44.5227C53.8207 44.6219 45.4764 52.1125 39.0539 57.7677C32.5302 52.0629 24.0848 44.5227 24.0848 44.5227C18.7748 39.6117 18.8254 33.6092 18.8254 33.4604C18.168 25.3745 24.0848 22.9438 24.3377 22.795C33.0359 19.1241 37.739 26.5155 38.2953 27.3588L39.0539 28.599L39.8124 27.3588C40.3182 26.5155 45.0719 19.1241 53.7701 22.795C53.9724 22.8942 59.8386 25.3249 59.1812 33.51Z" fill="black"/></svg>