<svg width="80" height="80" viewBox="0 0 80 80" fill="none" xmlns="http://www.w3.org/2000/svg"><path d="M31.4198 64L31.3287 63.3624C30.6001 57.852 34.3344 52.4782 37.1579 50.4288C38.7519 49.2903 40.7101 49.1993 42.3951 49.1537C43.6247 49.1082 44.7633 49.0626 45.4919 48.6528C46.6304 48.0152 46.5393 47.5142 46.3572 46.2846C46.3116 46.0569 46.2661 45.8292 46.2206 45.556C46.0839 44.5541 46.2661 44.0531 46.8581 43.7344C46.9037 43.7344 46.9037 43.6888 46.9037 43.5522C46.9037 43.37 46.8581 43.2334 46.8126 43.1879C46.767 43.1423 46.6304 43.1423 46.5849 43.1423C46.2661 43.1879 45.9473 42.9146 45.9018 42.5958C45.8562 42.277 46.0384 41.9583 46.3572 41.8672C46.676 41.7761 47.0403 41.6395 47.1769 41.5029C46.9037 41.2296 46.676 41.093 46.4027 40.9564C45.8107 40.6376 45.1276 40.2277 45.1731 38.7249C45.2187 37.9962 45.9018 37.6774 46.4938 37.4042C47.2225 37.0854 47.4046 36.9488 47.3591 36.7666C47.1769 35.9924 45.8562 34.8994 44.5355 33.852C43.5337 33.0778 42.4862 32.2581 41.6665 31.3473C40.4369 30.0266 40.4824 28.6148 40.528 27.2486C40.528 26.4288 40.5735 25.5636 40.3003 24.6983C39.6171 22.148 37.75 18.778 35.6551 17.4573L35.1086 17.093L35.7917 16L36.3382 16.3643C38.7519 17.8672 40.7557 21.556 41.5299 24.3795C41.8031 25.4725 41.8031 26.4288 41.8031 27.3397C41.7576 28.6148 41.7576 29.6167 42.6228 30.5275C43.397 31.3472 44.3989 32.167 45.3553 32.8956C46.9948 34.1708 48.4065 35.3093 48.6342 36.5389C48.9075 37.7685 47.7234 38.315 46.9948 38.6338C46.8126 38.7249 46.5393 38.8159 46.4483 38.907C46.4483 39.4991 46.5849 39.5901 47.0403 39.8634C47.3591 40.0455 47.7689 40.2733 48.1788 40.6831C48.6342 41.1385 48.5887 41.6395 48.4976 41.8672C48.4065 42.186 48.1788 42.4137 47.9056 42.5958C48.0422 42.8235 48.1333 43.1423 48.1333 43.5977C48.1333 44.4175 47.7689 44.6907 47.4046 44.9184C47.4046 44.9184 47.3591 45.0095 47.4046 45.4649C47.4502 45.6926 47.4957 45.9203 47.4957 46.148C47.7234 47.5142 47.9511 48.7438 45.9929 49.8824C44.991 50.4744 43.6703 50.5199 42.3041 50.5655C40.7101 50.611 39.0251 50.6566 37.75 51.6129C35.2452 53.4345 31.7841 58.444 32.4217 63.3624L32.5128 64H31.4198Z" fill="#231F20"/><path d="M40.1199 32.577C38.8447 32.577 37.9795 32.3493 37.8884 32.3493L37.4785 32.2582L37.7062 31.3929L38.1161 31.484C38.1616 31.484 41.5772 32.3493 44.8561 30.4821L45.2205 30.2544L45.6759 31.0286L45.3115 31.2563C43.4444 32.3493 41.5316 32.577 40.1199 32.577Z" fill="#231F20"/><path d="M37.113 28.1594L36.7031 27.3852L37.0675 27.1575C37.113 27.112 38.5703 26.3833 41.1206 26.7476L41.576 26.7932L41.4394 27.6585L40.984 27.6129C38.7069 27.2941 37.4773 27.9317 37.4318 27.9317L37.113 28.1594Z" fill="#231F20"/></svg>