<svg width="80" height="80" viewBox="0 0 80 80" fill="none" xmlns="http://www.w3.org/2000/svg"><path d="M40 16C26.752 16 16 26.752 16 40C16 53.248 26.752 64 40 64C53.248 64 64 53.248 64 40C64 26.752 53.248 16 40 16ZM40 61.696C27.968 61.696 18.24 51.904 18.24 39.936C18.24 27.904 28.032 18.176 40 18.176C51.968 18.176 61.76 27.968 61.76 39.936C61.76 51.968 52.032 61.696 40 61.696Z" fill="#231F20"/><path d="M37.6309 48.2559L30.4629 42.6879L30.9749 42.0479L37.5669 47.2319L52.2869 33.9199L52.8629 34.5599L37.6309 48.2559Z" fill="#231F20"/></svg>