<svg width="80" height="80" viewBox="0 0 80 80" fill="none" xmlns="http://www.w3.org/2000/svg"><path d="M59.8281 38.3596C60.2318 38.4963 60.6356 38.633 61.0393 38.633C62.6542 38.633 64 37.2662 64 35.626C64 34.6692 63.5962 33.8491 62.9234 33.3023C63.9999 30.5687 64.1345 28.245 63.0579 26.4682C61.443 23.5978 57.4059 22.5043 51.8885 23.1877C51.081 23.3244 50.139 23.4611 49.197 23.5978C47.0439 17.037 43.6795 12.7998 39.9115 12.7998C36.0089 12.7998 32.6445 17.037 30.6259 23.5978C29.8185 23.4611 29.0111 23.3244 28.3383 23.1877C28.0691 21.8209 26.8579 20.8642 25.3776 20.8642C24.0319 20.8642 22.8207 21.8209 22.5516 23.1877C19.8601 23.5978 17.8415 24.6913 16.7649 26.4682C15.15 29.3385 16.0922 33.439 19.5911 37.9496C20.1294 38.633 20.6675 39.3164 21.3404 39.9998C20.6675 40.6833 20.1294 41.3667 19.5911 42.0501C16.2267 46.5606 15.15 50.6611 16.7649 53.5315C18.1106 55.8551 20.9367 57.0853 24.8393 57.0853C25.7813 57.0853 26.8579 56.9486 27.9345 56.8119C28.7419 56.6752 29.6839 56.5385 30.6259 56.4019C32.7791 62.9627 36.1435 67.1998 39.9115 67.1998C41.6609 67.1998 43.4103 66.2431 44.8906 64.6029C45.2943 64.7396 45.698 64.8762 46.2363 64.8762C47.8512 64.8762 49.197 63.5094 49.197 61.8692C49.197 60.9124 48.7932 60.0923 48.1204 59.5456C48.5241 58.5888 48.9278 57.4953 49.3316 56.4019C51.3501 56.8119 53.2341 57.0853 54.9835 57.0853C58.8861 57.0853 61.8467 55.9918 63.1924 53.5315C65.0765 50.1144 63.1926 45.0571 58.6171 39.9998C59.0208 39.4531 59.4244 38.9064 59.8281 38.3596ZM63.0579 35.626C63.0579 36.7194 62.1159 37.6762 61.0393 37.6762C60.7702 37.6762 60.6356 37.6762 60.501 37.5395C59.9627 37.4028 59.5591 37.1295 59.4245 36.5828C59.2899 36.3094 59.1553 35.8993 59.1553 35.4892C59.1553 34.3958 60.0973 33.439 61.1738 33.439H61.3085C61.8468 33.439 62.2506 33.7123 62.6543 34.1224C62.9234 34.5324 63.0579 35.0792 63.0579 35.626ZM52.023 24.5545C52.965 24.4179 54.0416 24.4179 54.849 24.4179C58.3479 24.4179 60.7702 25.3747 61.7122 27.1516C62.5196 28.5184 62.3851 30.432 61.5776 32.6189C61.4431 32.6189 61.1739 32.6189 61.0393 32.6189C59.4244 32.6189 58.0788 33.9858 58.0788 35.626C58.0788 36.3094 58.3479 36.9927 58.7516 37.5395C58.3479 38.0862 57.9442 38.4963 57.5405 39.043C55.791 37.1295 53.6379 35.3525 51.2156 33.439C50.9465 30.4319 50.408 27.5616 49.7352 25.1013C50.408 24.8279 51.2156 24.6912 52.023 24.5545ZM51.3501 35.3526C53.3687 36.8561 54.9836 38.4963 56.5985 39.9998C55.1182 41.64 53.3687 43.1435 51.3501 44.647C51.4847 43.1435 51.4847 41.5034 51.4847 39.9998C51.4847 38.3596 51.4847 36.8561 51.3501 35.3526ZM50.0044 39.9998C50.0044 42.0501 49.8698 43.9636 49.7352 45.8772C48.2549 46.9707 46.64 48.0641 44.8906 49.0209C43.1412 49.9777 41.5264 50.9345 39.7769 51.6179C38.0275 50.7978 36.4126 49.9777 34.6631 49.0209C32.9137 48.0641 31.4334 46.9707 29.8185 45.8772C29.684 43.9636 29.5493 42.0501 29.5493 39.9998C29.5493 37.9496 29.684 36.036 29.8185 34.1224C31.2988 33.0289 32.9137 31.9355 34.6631 30.9787C36.4126 30.0219 38.0275 29.0652 39.7769 28.3818C41.5264 29.2019 43.1412 30.0219 44.8906 30.9787C46.64 31.9355 48.2549 33.0289 49.7352 34.1224C50.0043 36.036 50.0044 37.9496 50.0044 39.9998ZM49.6006 32.2089C48.3895 31.3888 47.0437 30.5687 45.698 29.7486C44.3523 28.9285 43.0066 28.245 41.6608 27.5616C43.9486 26.6048 46.1018 25.9214 48.2549 25.3747C48.7932 27.425 49.1969 29.7486 49.6006 32.2089ZM39.9115 14.3033C43.0067 14.3033 45.9673 18.1305 47.8513 24.0079C45.2944 24.6913 42.6029 25.648 39.9115 26.8782C37.22 25.648 34.5285 24.6913 31.9717 24.0079C33.8557 17.9938 36.6817 14.3033 39.9115 14.3033ZM31.5679 25.3747C33.5865 25.9214 35.8742 26.6048 38.162 27.5616C36.8162 28.245 35.4705 28.9285 34.1248 29.7486C32.7791 30.5687 31.4333 31.3888 30.2222 32.2089C30.4913 29.7486 30.895 27.425 31.5679 25.3747ZM23.359 22.9144C23.6281 22.231 24.4356 21.6842 25.243 21.6842C26.0505 21.6842 26.8579 22.231 27.1271 23.0511C27.2617 23.3244 27.2616 23.5978 27.2616 23.7345C27.2616 24.0078 27.2617 24.2812 27.1271 24.4179C26.8579 25.238 26.0505 25.7847 25.243 25.7847C24.301 25.7847 23.6281 25.238 23.359 24.2812C23.359 24.0079 23.2245 23.8712 23.2245 23.5978C23.2245 23.4611 23.359 23.1878 23.359 22.9144ZM20.6675 36.9928C17.7069 33.029 16.6304 29.3385 17.9761 27.1516C18.7835 25.7847 20.3984 24.9646 22.5516 24.5545C22.8207 25.7847 24.0319 26.8782 25.3776 26.8782C26.7233 26.8782 27.7999 25.9214 28.2036 24.6913C28.8764 24.828 29.5493 24.9646 30.2222 25.1013C29.5493 27.5616 29.011 30.4319 28.7419 33.439C26.3196 35.2159 24.1665 37.1295 22.4171 39.043C21.6096 38.2229 21.0713 37.6762 20.6675 36.9928ZM28.3383 44.647C26.4543 43.1435 24.7048 41.5034 23.0899 39.9998C24.5702 38.3596 26.3197 36.8561 28.3383 35.3526C28.2037 36.8561 28.2036 38.4963 28.2036 39.9998C28.2036 41.64 28.2037 43.1435 28.3383 44.647ZM27.6654 55.4451C22.6862 56.1285 19.1872 55.1717 17.9761 52.848C16.6304 50.5244 17.7069 46.9706 20.6675 43.0068C21.2058 42.3234 21.7442 41.7767 22.2825 41.0933C24.1665 43.0069 26.3196 44.9204 28.6074 46.6973C28.8765 49.7043 29.4148 52.5747 30.0876 55.035C29.2802 55.1717 28.4728 55.3084 27.6654 55.4451ZM30.0876 47.7907C31.2988 48.6108 32.6445 49.431 33.9903 50.2511C35.336 51.0712 36.6817 51.7546 38.0274 52.438C35.7397 53.3948 33.5865 54.0782 31.4333 54.6249C30.8951 52.5747 30.4913 50.251 30.0876 47.7907ZM48.2549 61.8692C48.2549 62.9627 47.3129 63.9194 46.2363 63.9194C45.9672 63.9194 45.8326 63.9194 45.5635 63.7827C45.1597 63.646 44.7561 63.236 44.487 62.8259C44.3524 62.5525 44.2177 62.1425 44.2177 61.7325C44.2177 60.639 45.1597 59.6822 46.2363 59.6822H46.3709C46.9092 59.6822 47.3129 59.9556 47.7166 60.229C47.9857 60.7757 48.2549 61.3225 48.2549 61.8692ZM46.1018 58.8621C44.4869 58.8621 43.1413 60.229 43.1413 61.8692C43.1413 62.5526 43.4103 63.0993 43.6794 63.6461C42.4683 65.0129 41.1227 65.6963 39.7769 65.6963C36.6818 65.6963 33.7211 61.8691 31.8371 55.9917C34.394 55.3083 37.0855 54.3516 39.7769 53.1214C42.4684 54.3516 45.1597 55.3083 47.7166 55.9917C47.4474 56.9485 47.0438 57.9054 46.6401 58.8621C46.5055 58.8621 46.3709 58.8621 46.1018 58.8621ZM48.1204 54.6249C46.1018 54.0782 43.814 53.3948 41.5263 52.438C42.872 51.7546 44.2177 51.0712 45.5635 50.2511C46.9092 49.431 48.2549 48.6108 49.4661 47.7907C49.197 50.251 48.7932 52.5747 48.1204 54.6249ZM61.8467 52.848C60.2318 55.5817 55.6564 56.2652 49.7352 55.035C50.408 52.5747 50.9465 49.7043 51.2156 46.6973C53.6379 44.9204 55.791 43.0068 57.5405 41.2299C61.5776 45.6038 63.327 50.1144 61.8467 52.848Z" fill="black"/></svg>