<svg width="80" height="80" viewBox="0 0 80 80" fill="none" xmlns="http://www.w3.org/2000/svg"><path d="M41.8389 18.9608C41.303 18.1444 40.6331 17.6001 39.9632 17.6001C38.8914 17.6001 38.0875 18.8248 38.0875 18.8248C37.4176 19.7773 22.948 42.0928 28.4411 52.5702C30.1828 55.9719 33.9342 57.7408 39.2933 57.7408V64.0001H40.7671V57.7408C46.2602 57.7408 49.8776 55.9719 51.6193 52.5702C56.9784 42.2288 42.3748 19.9133 41.8389 18.9608ZM50.2795 52.0259C48.8058 54.8833 45.5903 56.3801 40.6331 56.3801V50.1209H39.1594V56.3801C34.3361 56.3801 31.1207 54.8833 29.5129 52.0259C24.4218 42.3649 39.0254 20.0494 39.1594 19.7773C39.2933 19.5051 39.6953 19.0969 39.8293 19.0969C39.9632 19.0969 40.2312 19.233 40.4991 19.7773C40.7671 19.9133 55.3707 42.3649 50.2795 52.0259Z" fill="black"/></svg>